# xmcd CD database file
#
# Track frame offsets:
#	150
#	27480
#	54100
#	68740
#	91231
#	124894
#	146616
#	159143
#	183441
#	217199
#	231970
#	259844
#	284246
#	307434
#
# Disc length: 4423 seconds
#
# Revision: 0
# Processed by: cddbd v1.5.1PL0 Copyright (c) Steve Scherf et al.
# Submitted via: CDex 1.51
#
DISCID=d711450e
DTITLE=Hank Jones - I Remember You
DYEAR=1977
DGENRE=Jazz
TTITLE0=I Remember You
TTITLE1=Young No More
TTITLE2=You Took Advantage Of Me
TTITLE3=Love Walked In
TTITLE4=Dat Dere
TTITLE5=I'll Be Around
TTITLE6=Let's Fall In Love
TTITLE7=Like Someone In Love
TTITLE8=Theme For Jobim
TTITLE9=It's The Talk Of The Town
TTITLE10=I Remember You
TTITLE11=Young No More
TTITLE12=Love Walked In
TTITLE13=Like Someone In Love
EXTD=YEAR: 1977
EXTT0=
EXTT1=
EXTT2=
EXTT3=
EXTT4=
EXTT5=
EXTT6=
EXTT7=
EXTT8=
EXTT9=
EXTT10=
EXTT11=
EXTT12=
EXTT13=
PLAYORDER=
